<?xml version="1.0" encoding="utf-8"?>
<!-- Generator: Adobe Illustrator 22.0.1, SVG Export Plug-In . SVG Version: 6.00 Build 0)  -->
<svg version="1.1" id="Capa_1" xmlns="http://www.w3.org/2000/svg" xmlns:xlink="http://www.w3.org/1999/xlink" x="0px" y="0px"
	 viewBox="0 0 841 153.7" style="enable-background:new 0 0 841 153.7;" xml:space="preserve">
<style type="text/css">
	.st0{fill:#004263;}
	.st1{fill-rule:evenodd;clip-rule:evenodd;fill:#E40D20;}
	.st2{fill-rule:evenodd;clip-rule:evenodd;fill:#004263;}
	.st3{fill:#E40D20;}
</style>
<g>
	<g>
		<path class="st0" d="M224.6,65.7H215l-12.1-17.3c-0.9,0-1.6,0.1-2.2,0.1c-0.2,0-0.5,0-0.7,0c-0.3,0-0.5,0-0.8,0v10.7
			c0,2.3,0.2,3.8,0.7,4.3c0.7,0.8,1.7,1.2,3,1.2h1.4v1h-15.4v-1h1.3c1.5,0,2.6-0.5,3.3-1.5c0.4-0.6,0.6-1.9,0.6-4V35.3
			c0-2.3-0.2-3.8-0.7-4.3c-0.7-0.8-1.7-1.2-3.1-1.2h-1.3v-1H202c3.8,0,6.6,0.3,8.4,0.9s3.3,1.6,4.6,3.2c1.3,1.5,1.9,3.4,1.9,5.5
			c0,2.3-0.7,4.2-2.2,5.9c-1.4,1.7-3.7,2.8-6.7,3.5l7.4,10.6c1.7,2.4,3.1,4,4.4,4.8c1.2,0.8,2.8,1.3,4.8,1.5V65.7z M199.1,46.7
			c0.3,0,0.6,0,0.9,0c0.2,0,0.4,0,0.6,0c3.4,0,6-0.8,7.7-2.3c1.7-1.5,2.6-3.5,2.6-5.8c0-2.3-0.7-4.2-2.1-5.6
			c-1.4-1.4-3.3-2.2-5.6-2.2c-1,0-2.4,0.2-4.2,0.5V46.7z"/>
		<path class="st0" d="M235.5,30.8v14.6h7.9c2,0,3.4-0.3,4.1-1c0.9-0.8,1.4-2.3,1.5-4.4h1v12.9h-1c-0.2-1.8-0.5-2.9-0.7-3.5
			c-0.3-0.6-0.8-1.1-1.6-1.5c-0.7-0.4-1.8-0.5-3.3-0.5h-7.9v12.2c0,1.6,0.1,2.6,0.2,3c0.1,0.4,0.4,0.6,0.7,0.8c0.4,0.2,1,0.3,2,0.3
			h6.1c2,0,3.5-0.1,4.4-0.4c0.9-0.3,1.8-0.9,2.6-1.7c1.1-1.1,2.2-2.8,3.4-5.1h1.1l-3.1,9.3h-27.6v-1h1.3c0.8,0,1.6-0.2,2.4-0.6
			c0.6-0.3,0.9-0.7,1.2-1.3c0.2-0.6,0.3-1.8,0.3-3.6v-24c0-2.3-0.2-3.8-0.7-4.3c-0.6-0.7-1.7-1.1-3.2-1.1h-1.3v-1h27.6l0.4,8.1h-1
			c-0.4-1.9-0.8-3.3-1.2-4c-0.4-0.7-1.1-1.3-2-1.7c-0.7-0.3-1.9-0.4-3.7-0.4H235.5z"/>
		<path class="st0" d="M258.2,65.7v-1h1.3c1.5,0,2.6-0.5,3.2-1.5c0.4-0.6,0.6-1.9,0.6-4V35.3c0-2.3-0.2-3.7-0.7-4.3
			c-0.7-0.8-1.7-1.2-3.1-1.2h-1.3v-1h14.6c5.4,0,9.4,0.6,12.2,1.9s5,3.3,6.7,6.3c1.7,2.9,2.6,6.3,2.6,10.1c0,5.1-1.5,9.4-4.5,12.9
			c-3.4,3.8-8.6,5.8-15.6,5.8H258.2z M268.4,63c2.2,0.5,4.1,0.8,5.6,0.8c4.1,0,7.5-1.5,10.2-4.4c2.7-3,4-7,4-12
			c0-5.1-1.3-9.1-4-12.1c-2.7-2.9-6.2-4.4-10.4-4.4c-1.6,0-3.4,0.3-5.4,0.8V63z"/>
		<path class="st0" d="M346.5,65.7h-9.6l-12.1-17.3c-0.9,0-1.6,0.1-2.2,0.1c-0.2,0-0.5,0-0.7,0c-0.3,0-0.5,0-0.8,0v10.7
			c0,2.3,0.2,3.8,0.7,4.3c0.7,0.8,1.7,1.2,3,1.2h1.4v1h-15.4v-1h1.3c1.5,0,2.6-0.5,3.3-1.5c0.4-0.6,0.6-1.9,0.6-4V35.3
			c0-2.3-0.2-3.8-0.7-4.3c-0.7-0.8-1.7-1.2-3.1-1.2h-1.3v-1h13.1c3.8,0,6.6,0.3,8.4,0.9s3.3,1.6,4.6,3.2c1.3,1.5,1.9,3.4,1.9,5.5
			c0,2.3-0.7,4.2-2.2,5.9c-1.4,1.7-3.7,2.8-6.7,3.5l7.4,10.6c1.7,2.4,3.1,4,4.4,4.8c1.2,0.8,2.8,1.3,4.8,1.5V65.7z M321,46.7
			c0.3,0,0.6,0,0.9,0c0.2,0,0.4,0,0.6,0c3.4,0,6-0.8,7.7-2.3c1.7-1.5,2.6-3.5,2.6-5.8c0-2.3-0.7-4.2-2.1-5.6
			c-1.4-1.4-3.3-2.2-5.6-2.2c-1,0-2.4,0.2-4.2,0.5V46.7z"/>
		<path class="st0" d="M370.8,53.3h-13.9l-2.4,5.8c-0.6,1.4-0.9,2.5-0.9,3.2c0,0.6,0.3,1.1,0.8,1.5c0.5,0.4,1.6,0.7,3.4,0.8v1h-11.3
			v-1c1.5-0.3,2.5-0.6,2.9-1.1c0.9-0.9,1.9-2.6,3-5.3L365,27.9h0.9l12.5,30.7c1,2.5,1.9,4.1,2.7,4.8c0.8,0.7,2,1.1,3.4,1.2v1h-14.2
			v-1c1.4-0.1,2.4-0.3,2.9-0.7c0.5-0.4,0.8-0.9,0.8-1.5c0-0.8-0.4-2.1-1.1-3.8L370.8,53.3z M370.1,51.3L364,36.4l-6.2,14.9H370.1z"
			/>
		<path class="st0" d="M386.1,65.7v-1h1.3c1.5,0,2.6-0.5,3.2-1.5c0.4-0.6,0.6-1.9,0.6-4V35.3c0-2.3-0.2-3.7-0.7-4.3
			c-0.7-0.8-1.7-1.2-3.1-1.2h-1.3v-1h14.6c5.4,0,9.4,0.6,12.2,1.9s5,3.3,6.7,6.3c1.7,2.9,2.6,6.3,2.6,10.1c0,5.1-1.5,9.4-4.5,12.9
			c-3.4,3.8-8.6,5.8-15.6,5.8H386.1z M396.3,63c2.2,0.5,4.1,0.8,5.6,0.8c4.1,0,7.5-1.5,10.2-4.4c2.7-3,4-7,4-12
			c0-5.1-1.3-9.1-4-12.1c-2.7-2.9-6.2-4.4-10.4-4.4c-1.6,0-3.4,0.3-5.4,0.8V63z"/>
		<path class="st0" d="M441,64.7v1h-15.4v-1h1.3c1.5,0,2.6-0.4,3.2-1.3c0.4-0.6,0.6-2,0.6-4.2V35.3c0-1.9-0.1-3.1-0.3-3.7
			c-0.2-0.5-0.5-0.8-1.1-1.2c-0.8-0.4-1.6-0.7-2.4-0.7h-1.3v-1H441v1h-1.3c-1.5,0-2.5,0.4-3.2,1.3c-0.4,0.6-0.7,2-0.7,4.2v23.9
			c0,1.9,0.1,3.1,0.3,3.7c0.2,0.5,0.5,0.8,1.1,1.2c0.8,0.4,1.6,0.7,2.4,0.7H441z"/>
		<path class="st0" d="M462.1,27.9c4.7,0,8.7,1.8,12.1,5.5s5.1,8.2,5.1,13.6c0,5.6-1.7,10.3-5.2,14c-3.4,3.7-7.6,5.6-12.5,5.6
			c-4.9,0-9.1-1.8-12.4-5.4c-3.4-3.6-5-8.3-5-14c0-5.9,1.9-10.6,5.8-14.3C453.4,29.6,457.4,27.9,462.1,27.9z M461.6,29.9
			c-3.2,0-5.8,1.2-7.7,3.7c-2.4,3-3.6,7.5-3.6,13.4c0,6,1.3,10.7,3.8,13.9c1.9,2.5,4.5,3.7,7.6,3.7c3.4,0,6.1-1.4,8.3-4.1
			c2.2-2.7,3.3-7,3.3-12.8c0-6.3-1.2-11-3.6-14.1C467.7,31.2,465,29.9,461.6,29.9z"/>
		<path class="st0" d="M511.7,64.7v1h-15.4v-1h1.3c1.5,0,2.6-0.4,3.2-1.3c0.4-0.6,0.6-2,0.6-4.2V35.3c0-1.9-0.1-3.1-0.3-3.7
			c-0.2-0.5-0.5-0.8-1.1-1.2c-0.8-0.4-1.6-0.7-2.4-0.7h-1.3v-1h15.4v1h-1.3c-1.5,0-2.5,0.4-3.2,1.3c-0.4,0.6-0.7,2-0.7,4.2v23.9
			c0,1.9,0.1,3.1,0.3,3.7c0.2,0.5,0.5,0.8,1.1,1.2c0.8,0.4,1.6,0.7,2.4,0.7H511.7z"/>
		<path class="st0" d="M512.3,28.8h9.7L544,56.5V35.2c0-2.3-0.2-3.7-0.7-4.2c-0.7-0.8-1.7-1.1-3.1-1.1h-1.2v-1h12.5v1h-1.3
			c-1.5,0-2.6,0.5-3.2,1.4c-0.4,0.6-0.6,1.9-0.6,4v31.1h-1l-23.6-29.7v22.7c0,2.3,0.2,3.7,0.7,4.2c0.7,0.8,1.7,1.1,3.1,1.1h1.3v1
			h-12.5v-1h1.2c1.5,0,2.6-0.5,3.3-1.4c0.4-0.6,0.6-1.9,0.6-4V33.6c-1-1.3-1.8-2.1-2.4-2.5c-0.5-0.4-1.3-0.8-2.4-1.1
			c-0.5-0.2-1.3-0.2-2.3-0.2V28.8z"/>
		<path class="st0" d="M583.5,28.8l0.4,8.7h-1c-0.2-1.5-0.5-2.6-0.8-3.3c-0.5-1.1-1.3-1.8-2.2-2.3c-0.9-0.5-2.1-0.7-3.6-0.7h-5.1
			v28.2c0,2.3,0.2,3.7,0.7,4.2c0.7,0.8,1.7,1.1,3.1,1.1h1.2v1h-15.2v-1h1.3c1.5,0,2.6-0.5,3.2-1.4c0.4-0.6,0.6-1.9,0.6-4V31.1h-4.3
			c-1.7,0-2.9,0.1-3.6,0.4c-0.9,0.3-1.7,1-2.4,2s-1,2.3-1.2,4h-1l0.4-8.7H583.5z"/>
		<path class="st0" d="M596.5,30.8v14.6h7.9c2,0,3.4-0.3,4.1-1c0.9-0.8,1.4-2.3,1.5-4.4h1v12.9h-1c-0.2-1.8-0.5-2.9-0.7-3.5
			c-0.3-0.6-0.8-1.1-1.6-1.5c-0.7-0.4-1.8-0.5-3.3-0.5h-7.9v12.2c0,1.6,0.1,2.6,0.2,3c0.1,0.4,0.4,0.6,0.7,0.8c0.4,0.2,1,0.3,2,0.3
			h6.1c2,0,3.5-0.1,4.4-0.4s1.8-0.9,2.6-1.7c1.1-1.1,2.2-2.8,3.4-5.1h1.1l-3.1,9.3h-27.6v-1h1.3c0.8,0,1.6-0.2,2.4-0.6
			c0.6-0.3,0.9-0.7,1.2-1.3c0.2-0.6,0.3-1.8,0.3-3.6v-24c0-2.3-0.2-3.8-0.7-4.3c-0.6-0.7-1.7-1.1-3.2-1.1h-1.3v-1H614l0.4,8.1h-1
			c-0.4-1.9-0.8-3.3-1.2-4c-0.5-0.7-1.1-1.3-2-1.7c-0.7-0.3-1.9-0.4-3.7-0.4H596.5z"/>
		<path class="st0" d="M651.6,27.9l0.9,11.7h-0.9c-0.9-2.9-2.1-5.1-3.6-6.6c-2.1-2.1-4.9-3.2-8.2-3.2c-4.6,0-8,1.9-10.4,5.6
			c-2,3.1-3,6.9-3,11.2c0,3.5,0.7,6.7,2,9.6c1.3,2.9,3.1,5,5.2,6.4c2.1,1.4,4.3,2,6.6,2c1.3,0,2.6-0.2,3.8-0.5
			c1.2-0.3,2.4-0.9,3.6-1.5V52c0-1.9-0.1-3.1-0.4-3.6s-0.7-1-1.3-1.3c-0.6-0.3-1.6-0.4-3-0.4v-1h13.9v1H656c-1.4,0-2.3,0.5-2.8,1.4
			c-0.4,0.7-0.5,2-0.5,4v11.3c-2,1.1-4,2-6,2.5c-2,0.5-4.2,0.8-6.6,0.8c-6.9,0-12.2-2.3-15.8-6.9c-2.7-3.4-4-7.4-4-11.9
			c0-3.2,0.8-6.4,2.3-9.3c1.8-3.5,4.3-6.3,7.4-8.2c2.6-1.6,5.7-2.4,9.3-2.4c1.3,0,2.5,0.1,3.6,0.3c1.1,0.2,2.6,0.7,4.5,1.4
			c1,0.4,1.6,0.6,2,0.6s0.6-0.2,0.9-0.5c0.2-0.3,0.4-0.9,0.4-1.9H651.6z"/>
		<path class="st0" d="M694,65.7h-9.6l-12.1-17.3c-0.9,0-1.6,0.1-2.2,0.1c-0.2,0-0.5,0-0.7,0c-0.3,0-0.5,0-0.8,0v10.7
			c0,2.3,0.2,3.8,0.7,4.3c0.7,0.8,1.7,1.2,3,1.2h1.4v1h-15.4v-1h1.3c1.5,0,2.6-0.5,3.3-1.5c0.4-0.6,0.6-1.9,0.6-4V35.3
			c0-2.3-0.2-3.8-0.7-4.3c-0.7-0.8-1.7-1.2-3.1-1.2h-1.3v-1h13.1c3.8,0,6.6,0.3,8.4,0.9s3.3,1.6,4.6,3.2c1.3,1.5,1.9,3.4,1.9,5.5
			c0,2.3-0.7,4.2-2.2,5.9s-3.7,2.8-6.7,3.5l7.4,10.6c1.7,2.4,3.1,4,4.4,4.8c1.2,0.8,2.8,1.3,4.8,1.5V65.7z M668.6,46.7
			c0.3,0,0.6,0,0.9,0s0.4,0,0.6,0c3.4,0,6-0.8,7.7-2.3c1.7-1.5,2.6-3.5,2.6-5.8c0-2.3-0.7-4.2-2.1-5.6c-1.4-1.4-3.3-2.2-5.6-2.2
			c-1,0-2.4,0.2-4.2,0.5V46.7z"/>
		<path class="st0" d="M710.3,64.7v1h-15.4v-1h1.3c1.5,0,2.6-0.4,3.2-1.3c0.4-0.6,0.6-2,0.6-4.2V35.3c0-1.9-0.1-3.1-0.3-3.7
			c-0.2-0.5-0.5-0.8-1.1-1.2c-0.8-0.4-1.6-0.7-2.4-0.7h-1.3v-1h15.4v1H709c-1.5,0-2.5,0.4-3.2,1.3c-0.4,0.6-0.7,2-0.7,4.2v23.9
			c0,1.9,0.1,3.1,0.3,3.7c0.2,0.5,0.5,0.8,1.1,1.2c0.8,0.4,1.6,0.7,2.4,0.7H710.3z"/>
		<path class="st0" d="M712.5,65.7v-1h1.3c1.5,0,2.6-0.5,3.2-1.5c0.4-0.6,0.6-1.9,0.6-4V35.3c0-2.3-0.2-3.7-0.7-4.3
			c-0.7-0.8-1.7-1.2-3.1-1.2h-1.3v-1h14.6c5.4,0,9.4,0.6,12.2,1.9s5,3.3,6.7,6.3c1.7,2.9,2.6,6.3,2.6,10.1c0,5.1-1.5,9.4-4.5,12.9
			c-3.4,3.8-8.6,5.8-15.6,5.8H712.5z M722.8,63c2.2,0.5,4.1,0.8,5.6,0.8c4.1,0,7.5-1.5,10.2-4.4c2.7-3,4-7,4-12
			c0-5.1-1.3-9.1-4-12.1c-2.7-2.9-6.2-4.4-10.4-4.4c-1.6,0-3.4,0.3-5.4,0.8V63z"/>
		<path class="st0" d="M775.5,53.3h-13.9l-2.4,5.8c-0.6,1.4-0.9,2.5-0.9,3.2c0,0.6,0.3,1.1,0.8,1.5c0.5,0.4,1.6,0.7,3.4,0.8v1h-11.3
			v-1c1.5-0.3,2.5-0.6,2.9-1.1c0.9-0.9,1.9-2.6,3-5.3l12.6-30.4h0.9l12.5,30.7c1,2.5,1.9,4.1,2.7,4.8c0.8,0.7,2,1.1,3.4,1.2v1h-14.2
			v-1c1.4-0.1,2.4-0.3,2.9-0.7c0.5-0.4,0.8-0.9,0.8-1.5c0-0.8-0.4-2.1-1.1-3.8L775.5,53.3z M774.8,51.3l-6.1-14.9l-6.2,14.9H774.8z"
			/>
		<path class="st0" d="M790.8,65.7v-1h1.3c1.5,0,2.6-0.5,3.2-1.5c0.4-0.6,0.6-1.9,0.6-4V35.3c0-2.3-0.2-3.7-0.7-4.3
			c-0.7-0.8-1.7-1.2-3.1-1.2h-1.3v-1h14.6c5.4,0,9.4,0.6,12.2,1.9s5,3.3,6.7,6.3c1.7,2.9,2.6,6.3,2.6,10.1c0,5.1-1.5,9.4-4.5,12.9
			c-3.4,3.8-8.6,5.8-15.6,5.8H790.8z M801,63c2.2,0.5,4.1,0.8,5.6,0.8c4.1,0,7.5-1.5,10.2-4.4c2.7-3,4-7,4-12c0-5.1-1.3-9.1-4-12.1
			c-2.7-2.9-6.2-4.4-10.4-4.4c-1.6,0-3.4,0.3-5.4,0.8V63z"/>
	</g>
	<g>
		<path class="st0" d="M232,96.9c0.2,0,0.3-0.1,0.5-0.1c0.1,0,0.3,0,0.4,0c0.7,0,1.2,0.2,1.6,0.6c0.4,0.4,0.6,1,0.6,1.8
			c0,0.8-0.2,1.4-0.7,1.9s-1.1,0.7-1.9,0.7c-0.9,0-1.5-0.3-2-0.9c-0.5-0.6-0.8-1.4-0.8-2.5c0-1.7,0.6-3.2,1.9-4.6
			c1.3-1.4,3-2.4,5.3-3.2v1.6c-1.4,0.7-2.5,1.4-3.2,2.1C232.9,95.1,232.3,95.9,232,96.9z M240.5,96.9c0.2,0,0.3-0.1,0.5-0.1
			c0.1,0,0.3,0,0.4,0c0.7,0,1.2,0.2,1.6,0.6c0.4,0.4,0.6,1,0.6,1.8c0,0.8-0.2,1.4-0.7,1.9c-0.5,0.5-1.1,0.7-1.9,0.7
			c-0.9,0-1.5-0.3-2.1-0.9c-0.5-0.6-0.8-1.4-0.8-2.5c0-1.7,0.6-3.2,1.9-4.6c1.3-1.4,3-2.4,5.3-3.2v1.6c-1.4,0.7-2.5,1.4-3.2,2.1
			C241.4,95.1,240.8,95.9,240.5,96.9z"/>
		<path class="st0" d="M253.8,112.7c-0.1,0.4-0.2,0.8-0.3,1.1c-0.1,0.3-0.1,0.5-0.1,0.7c0,0.6,0.2,1.1,0.6,1.3
			c0.4,0.2,1.4,0.4,2.8,0.4h1.9c2.3,0,4.1-0.6,5.4-1.7c1.3-1.2,2.3-3.2,3-6.1h2.9l-2.8,10.3h-21.8l0.6-2.5h0.3
			c0.9,0,1.5-0.2,1.9-0.5c0.4-0.3,0.7-0.9,0.9-1.7l4.3-16.7c0.1-0.3,0.1-0.6,0.2-0.9c0-0.3,0.1-0.6,0.1-0.9c0-0.6-0.2-1-0.7-1.2
			c-0.5-0.2-1.2-0.4-2.3-0.4h-0.4l0.6-2.5h12l-0.6,2.5c-0.1,0-0.3,0-0.5,0c-0.2,0-0.3,0-0.4,0c-1.1,0-1.9,0.2-2.4,0.5
			c-0.5,0.3-0.8,0.9-1,1.8L253.8,112.7z"/>
		<path class="st0" d="M284.3,115.7c-1.1,1.2-2.2,2.1-3.3,2.7c-1.1,0.6-2.3,0.9-3.4,0.9c-1.8,0-3.2-0.7-4.3-2.2s-1.7-3.4-1.7-5.7
			c0-1.8,0.3-3.5,0.9-5.2c0.6-1.7,1.4-3.3,2.5-4.7c1.1-1.4,2.3-2.4,3.6-3.2c1.3-0.7,2.7-1.1,4-1.1c1.3,0,2.4,0.3,3.3,1
			c0.9,0.7,1.6,1.8,2.2,3.2l1-3.9h3.6l-4.3,15.6l0,0.1c-0.2,0.8-0.3,1.3-0.3,1.6c0,0.4,0.1,0.7,0.3,1c0.2,0.2,0.4,0.4,0.8,0.4
			c0.5,0,1.1-0.3,1.7-0.9c0.6-0.6,1.2-1.6,1.9-2.8h2.1c-1,2.2-2.1,3.9-3.3,5c-1.2,1.1-2.5,1.7-3.8,1.7c-1,0-1.7-0.3-2.3-0.8
			C284.9,117.8,284.5,116.9,284.3,115.7z M283.3,99.8c-1,0-1.9,0.3-2.8,0.9c-0.9,0.6-1.7,1.5-2.5,2.7c-0.8,1.2-1.5,2.7-1.9,4.2
			c-0.5,1.6-0.7,3.1-0.7,4.6c0,1.4,0.3,2.5,1,3.3c0.6,0.8,1.5,1.2,2.6,1.2c0.9,0,1.7-0.3,2.5-0.7c0.8-0.5,1.6-1.2,2.3-2.2
			c0.9-1.2,1.7-2.7,2.3-4.5c0.6-1.8,0.9-3.4,0.9-4.9c0-1.4-0.3-2.5-1-3.3C285.3,100.3,284.4,99.8,283.3,99.8z"/>
		<path class="st0" d="M327.3,97.3c0.1-0.3,0.2-0.6,0.3-0.9c0.1-0.3,0.1-0.6,0.1-0.9c0-0.6-0.2-1.1-0.7-1.3
			c-0.5-0.2-1.4-0.4-2.7-0.4l0.6-2.5h10.2l-0.6,2.5h-0.2c-0.8,0-1.5,0.3-2.2,0.8c-0.6,0.5-1.2,1.4-1.8,2.7l-10.3,22h-4l-4.2-22.1
			c-0.3-1.3-0.6-2.2-1.1-2.7c-0.4-0.5-1.1-0.7-2.1-0.7h-0.5l0.6-2.5h11l-0.6,2.5h-0.4c-1.2,0-2,0.1-2.4,0.4
			c-0.4,0.3-0.6,0.8-0.6,1.5c0,0.3,0.1,0.8,0.2,1.5c0,0.1,0,0.2,0,0.2l3.3,17.5L327.3,97.3z"/>
	</g>
	<g>
		<path class="st0" d="M350.4,106c0,1.7-0.3,3.3-0.8,4.9c-0.5,1.6-1.3,3-2.3,4.2c-1.1,1.3-2.4,2.3-3.8,3.1c-1.5,0.7-3,1.1-4.6,1.1
			c-2.4,0-4.4-0.8-5.8-2.4s-2.2-3.8-2.2-6.4c0-2,0.3-3.9,1-5.6c0.7-1.7,1.7-3.2,3-4.5c1-1,2.2-1.8,3.5-2.3c1.3-0.5,2.6-0.8,4.1-0.8
			c2.4,0,4.3,0.8,5.8,2.4C349.7,101.2,350.4,103.3,350.4,106z M339.3,117.2c1,0,1.9-0.3,2.7-0.9s1.6-1.5,2.3-2.7
			c0.7-1.2,1.2-2.5,1.5-4s0.5-3,0.5-4.6c0-1.9-0.3-3.3-1-4.3s-1.7-1.4-3.1-1.4c-2,0-3.7,1.1-5.1,3.3s-2.1,5-2.1,8.3
			c0,2,0.4,3.5,1.1,4.6C336.9,116.6,338,117.2,339.3,117.2z"/>
		<path class="st0" d="M355,113.6c0.4-0.2,0.7-0.3,1.1-0.4s0.7-0.1,1-0.1c0.8,0,2,0.4,3.6,1.2c1.6,0.8,2.8,1.2,3.6,1.2
			c0.9,0,1.6-0.3,2.3-0.9c0.6-0.6,1.2-1.5,1.6-2.7h2c-0.4,2.4-1.2,4.1-2.3,5.3s-2.5,1.8-4.2,1.8c-0.9,0-1.7-0.1-2.4-0.4
			c-0.7-0.3-1.5-0.8-2.2-1.4c-0.3-0.2-0.6-0.6-1.1-1.1c-0.9-0.9-1.5-1.4-2-1.4c-0.3,0-0.5,0.1-0.6,0.2c-0.2,0.1-0.2,0.4-0.2,0.6
			c0,0.2,0.2,0.6,0.5,1.1c0.3,0.5,0.5,0.9,0.5,1.2c0,0.4-0.1,0.7-0.3,0.9c-0.2,0.2-0.5,0.3-1,0.3c-0.6,0-1-0.3-1.3-0.9
			c-0.3-0.6-0.4-1.4-0.4-2.6c0-1.9,0.6-3.7,1.7-5.1c1.1-1.5,2.7-2.7,4.9-3.6c0.7-0.3,1.7-0.6,3-1c1.3-0.4,2.1-0.6,2.6-0.8
			c0.7-0.3,1.2-0.6,1.7-1c0.5-0.4,0.8-0.8,1.1-1.4c-0.2,0-0.5,0.1-0.7,0.1c-0.2,0-0.5,0-0.8,0c-0.8,0-1.9-0.3-3.4-1
			c-1.5-0.7-2.6-1-3.5-1c-0.8,0-1.5,0.2-2.1,0.7c-0.6,0.4-1,1.1-1.3,2h-1.9c0.4-2,1.1-3.6,2.1-4.7c1-1.1,2.2-1.6,3.7-1.6
			c0.6,0,1.2,0.1,1.8,0.3c0.5,0.2,1.1,0.6,1.7,1.1c0.2,0.2,0.6,0.5,1,0.9c1.5,1.3,2.5,2,3.1,2c0.2,0,0.4,0,0.5-0.1s0.2-0.2,0.2-0.4
			c0-0.3-0.2-0.7-0.6-1.3c-0.4-0.6-0.6-1-0.6-1.3c0-0.3,0.1-0.6,0.4-0.8c0.2-0.2,0.5-0.3,0.9-0.3c0.6,0,1.1,0.3,1.4,0.9
			c0.3,0.6,0.5,1.5,0.5,2.7c0,1.6-0.6,3.1-1.7,4.5c-1.1,1.4-2.8,2.5-5,3.5c-0.6,0.2-1.5,0.6-2.8,1c-1.3,0.4-2.3,0.8-2.9,1.1
			c-0.8,0.4-1.3,0.8-1.8,1.2C355.4,112.6,355.1,113.1,355,113.6z"/>
		<path class="st0" d="M390.5,125.6l0.6-2.1c1,0,1.8-0.2,2.2-0.5c0.5-0.3,0.8-0.9,1-1.7l1.6-5.9c-1,1.3-2.1,2.2-3.2,2.9
			c-1.1,0.6-2.4,1-3.6,1c-1.8,0-3.2-0.7-4.3-2.2s-1.7-3.3-1.7-5.7c0-1.8,0.3-3.5,0.9-5.2c0.6-1.7,1.4-3.3,2.5-4.7
			c1.1-1.4,2.3-2.5,3.6-3.2c1.3-0.7,2.7-1.1,4.1-1.1c1.3,0,2.4,0.3,3.2,1c0.9,0.7,1.6,1.8,2.2,3.2l2.3-3.9h2.3l-6.1,22.3
			c-0.1,0.3-0.2,0.6-0.2,0.9c0,0.3-0.1,0.6-0.1,0.8c0,0.7,0.2,1.1,0.7,1.4c0.5,0.3,1.4,0.4,2.6,0.4l-0.5,2.1H390.5z M394.9,99.8
			c-1,0-1.9,0.3-2.8,0.9c-0.9,0.6-1.7,1.5-2.5,2.7c-0.8,1.2-1.5,2.7-1.9,4.2c-0.5,1.6-0.7,3.1-0.7,4.5c0,1.4,0.3,2.6,1,3.4
			c0.6,0.8,1.5,1.2,2.6,1.2c0.9,0,1.7-0.3,2.5-0.7c0.8-0.5,1.6-1.2,2.3-2.2c0.9-1.2,1.7-2.7,2.3-4.5c0.6-1.8,0.9-3.4,0.9-4.9
			c0-1.4-0.3-2.5-1-3.3C396.9,100.3,396,99.8,394.9,99.8z"/>
		<path class="st0" d="M405.5,104.3c1.1-2.3,2.2-3.9,3.4-5c1.2-1.1,2.4-1.6,3.8-1.6c1,0,1.8,0.3,2.4,0.9s0.9,1.5,0.9,2.6
			c0,0.8-0.1,1.7-0.4,2.8c-0.3,1.1-0.7,2.5-1.3,4c-0.1,0.4-0.3,0.9-0.6,1.6c-1.1,2.9-1.6,4.7-1.6,5.5c0,0.6,0.2,1,0.5,1.3
			c0.3,0.3,0.8,0.5,1.5,0.5c1.9,0,3.7-1.6,5.5-4.9c1.8-3.3,3.3-8,4.6-14h3.8l-3,9.7c-0.7,2.3-1.2,4-1.5,5.1
			c-0.3,1.1-0.4,1.8-0.4,2.3c0,0.4,0.1,0.7,0.2,0.9c0.2,0.2,0.4,0.3,0.7,0.3c0.7,0,1.3-0.4,2-1.1s1.3-1.7,1.9-3h2.1
			c-0.9,2.2-2,3.9-3.4,5.2c-1.4,1.3-2.7,2-3.9,2c-0.9,0-1.7-0.3-2.1-0.9c-0.5-0.6-0.7-1.5-0.7-2.6c0-0.2,0-0.5,0-0.8
			c0-0.3,0.1-0.7,0.1-1.1c-1.3,1.9-2.5,3.3-3.7,4.1s-2.4,1.3-3.7,1.3c-1.2,0-2.2-0.4-2.9-1.1c-0.7-0.8-1.1-1.7-1.1-3
			c0-1.3,0.6-3.6,1.8-6.8l0.2-0.6c0.7-1.9,1.1-3.3,1.4-4.1c0.2-0.8,0.4-1.4,0.4-1.8c0-0.4-0.1-0.7-0.3-1c-0.2-0.2-0.5-0.3-0.8-0.3
			c-0.5,0-1.1,0.3-1.6,0.9c-0.6,0.6-1.2,1.5-1.9,2.8H405.5z"/>
		<path class="st0" d="M449.1,112.1c-1.2,2.4-2.7,4.1-4.3,5.3c-1.6,1.2-3.4,1.8-5.3,1.8c-2.3,0-4.2-0.8-5.6-2.3
			c-1.4-1.5-2.1-3.5-2.1-6c0-2.1,0.4-4,1.2-5.8s2-3.4,3.5-4.8c1.1-1,2.3-1.8,3.6-2.3c1.3-0.5,2.6-0.8,3.9-0.8c1.7,0,3,0.4,4.1,1.2
			c1,0.8,1.5,1.9,1.5,3.3c0,2.1-1.2,3.8-3.5,5.2c-2.3,1.3-5.6,2.1-9.9,2.4c-0.1,0.6-0.3,1-0.3,1.5c-0.1,0.4-0.1,0.8-0.1,1.1
			c0,1.5,0.4,2.7,1.2,3.6c0.8,0.9,1.9,1.3,3.2,1.3c1.3,0,2.5-0.4,3.7-1.2s2.3-2,3.3-3.6L449.1,112.1z M436.3,107.5
			c2.9-0.2,5.2-0.8,6.8-1.7c1.6-1,2.5-2.2,2.5-3.7c0-0.8-0.2-1.5-0.7-2c-0.5-0.5-1.1-0.7-1.9-0.7c-1.4,0-2.6,0.7-3.8,2.1
			S437.1,104.9,436.3,107.5z"/>
		<path class="st0" d="M487.4,101.2c-0.3-2.6-1.1-4.5-2.5-5.9c-1.3-1.4-3.1-2.1-5.3-2.1c-1.4,0-2.6,0.3-3.8,0.9
			c-1.2,0.6-2.2,1.5-3.1,2.7c-1.1,1.4-1.9,3.1-2.5,5s-0.9,4-0.9,6.2c0,2.8,0.6,4.9,1.9,6.3s3.1,2.2,5.4,2.2c2.3,0,4.3-0.7,5.9-2.1
			c1.6-1.4,2.4-3,2.4-4.9c0-0.7-0.2-1.3-0.7-1.5c-0.5-0.3-1.5-0.5-3-0.6l0.6-2.4h11.9l-0.7,2.4c-1.3,0-2.3,0.4-2.9,1.1
			c-0.7,0.7-1.2,2-1.7,3.8l-1.7,6.9h-2.2v0c-0.1-1.2-0.4-1.7-0.8-1.7c0,0-0.9,0.3-2.7,0.9c-1.8,0.6-3.6,0.9-5.4,0.9
			c-3.4,0-6.1-1.1-8.1-3.3s-3.1-5.1-3.1-8.8c0-2,0.3-4,1-5.9c0.7-1.9,1.7-3.7,3-5.3c1.5-1.8,3.1-3.1,4.9-4c1.8-0.9,3.7-1.4,5.7-1.4
			c0.8,0,1.7,0.1,2.5,0.2c0.8,0.1,1.6,0.4,2.4,0.7c0.4,0.1,1.1,0.4,1.8,0.8s1.3,0.6,1.7,0.6c0.4,0,0.7-0.2,1-0.5
			c0.3-0.4,0.5-0.9,0.7-1.6h2.1l-1.3,10.5H487.4z"/>
		<path class="st0" d="M506.3,112.3c-1.3,2.4-2.5,4.2-3.6,5.3c-1.2,1.1-2.4,1.6-3.7,1.6c-1,0-1.8-0.3-2.4-0.9
			c-0.6-0.6-0.9-1.5-0.9-2.6c0-0.9,0.5-3.4,1.6-7.3l0.2-0.6l3.1-11c0.2-0.7,0.3-1.3,0.4-1.7s0.1-0.8,0.1-1c0-0.5-0.2-0.8-0.7-1.1
			c-0.5-0.2-1.1-0.4-2-0.4H497l0.6-2.1c1.5,0,2.9-0.1,4.3-0.2c1.4-0.1,2.8-0.2,4.2-0.4l-5.5,19.5c-0.5,1.7-0.8,2.9-1,3.8
			c-0.2,0.8-0.3,1.4-0.3,1.7c0,0.4,0.1,0.7,0.3,0.9s0.4,0.3,0.8,0.3c0.5,0,1.1-0.3,1.7-1c0.6-0.6,1.3-1.6,2-3H506.3z"/>
		<path class="st0" d="M527.9,106c0,1.7-0.3,3.3-0.8,4.9c-0.5,1.6-1.3,3-2.3,4.2c-1.1,1.3-2.4,2.3-3.8,3.1c-1.5,0.7-3,1.1-4.6,1.1
			c-2.4,0-4.4-0.8-5.8-2.4s-2.2-3.8-2.2-6.4c0-2,0.3-3.9,1-5.6c0.7-1.7,1.7-3.2,3-4.5c1-1,2.2-1.8,3.5-2.3c1.3-0.5,2.6-0.8,4.1-0.8
			c2.4,0,4.3,0.8,5.8,2.4C527.2,101.2,527.9,103.3,527.9,106z M516.8,117.2c1,0,1.9-0.3,2.7-0.9c0.8-0.6,1.6-1.5,2.3-2.7
			c0.7-1.2,1.2-2.5,1.5-4c0.4-1.5,0.5-3,0.5-4.6c0-1.9-0.3-3.3-1-4.3s-1.7-1.4-3.1-1.4c-2,0-3.7,1.1-5.1,3.3c-1.4,2.2-2.1,5-2.1,8.3
			c0,2,0.4,3.5,1.1,4.6C514.4,116.6,515.5,117.2,516.8,117.2z"/>
		<path class="st0" d="M539.6,102.8c1-1.9,2-3.3,3-4.2c0.9-0.9,1.9-1.3,3-1.3c0.9,0,1.5,0.3,2,0.8c0.5,0.5,0.7,1.3,0.7,2.2
			c0,0.8-0.2,1.4-0.7,1.9c-0.5,0.5-1.1,0.7-1.8,0.7c-0.6,0-1.1-0.2-1.5-0.5c-0.4-0.3-0.6-0.7-0.6-1.2c0,0,0,0,0-0.1
			c0-0.1,0-0.1,0-0.2c0-0.2,0-0.3-0.1-0.3c0,0-0.1-0.1-0.2-0.1c-1.1,0-2.4,1.7-3.9,5c-1.5,3.4-2.9,7.7-4,12.9h-3.8l2.8-9.3
			c0.7-2.3,1.2-4,1.5-5c0.3-1.1,0.4-1.8,0.4-2.3c0-0.4-0.1-0.7-0.2-0.9s-0.3-0.4-0.6-0.4c-0.6,0-1.2,0.3-1.8,0.8s-1.3,1.5-2.1,2.8
			h-2.1c1.1-2.1,2.2-3.7,3.5-4.9c1.3-1.2,2.5-1.7,3.7-1.7c0.9,0,1.6,0.3,2.1,0.9c0.5,0.6,0.7,1.4,0.7,2.5c0,0.2,0,0.4,0,0.6
			C539.8,101.9,539.7,102.3,539.6,102.8z"/>
		<path class="st0" d="M561.5,112.5c-1,2.2-2.1,3.9-3.3,5c-1.2,1.1-2.4,1.7-3.8,1.7c-1,0-1.8-0.3-2.4-0.9c-0.6-0.6-0.9-1.5-0.9-2.6
			c0-0.7,0.1-1.6,0.4-2.6c0.2-1.1,0.6-2.2,1.1-3.5c0.3-0.8,0.7-1.9,1.2-3.2c0.9-2.5,1.4-4,1.4-4.5c0-0.4-0.1-0.7-0.2-0.9
			s-0.4-0.3-0.7-0.3c-0.6,0-1.1,0.3-1.7,0.8c-0.6,0.6-1.3,1.5-2.1,2.7h-2.1c1.1-2.1,2.2-3.7,3.5-4.9s2.5-1.7,3.7-1.7
			c1,0,1.7,0.3,2.3,0.9c0.5,0.6,0.8,1.5,0.8,2.6c0,0.6-0.1,1.4-0.4,2.5c-0.3,1-0.9,2.8-1.8,5.4c-0.7,1.9-1.2,3.3-1.4,4.1
			c-0.2,0.8-0.4,1.4-0.4,1.8c0,0.4,0.1,0.7,0.3,1c0.2,0.2,0.5,0.3,0.8,0.3c0.5,0,1.1-0.3,1.7-0.9c0.6-0.6,1.2-1.5,1.9-2.8H561.5z
			 M555.2,92.5c0-0.7,0.2-1.3,0.7-1.8s1.1-0.7,1.7-0.7c0.7,0,1.3,0.2,1.8,0.7s0.7,1.1,0.7,1.8c0,0.7-0.2,1.3-0.7,1.8
			s-1.1,0.7-1.8,0.7c-0.7,0-1.3-0.2-1.7-0.7C555.4,93.7,555.2,93.1,555.2,92.5z"/>
		<path class="st0" d="M573.4,97.9h10.9l-3.8,15.3c-0.1,0.5-0.2,0.9-0.2,1.1c0,0.2-0.1,0.4-0.1,0.6c0,0.4,0.1,0.7,0.3,1
			c0.2,0.3,0.5,0.4,0.8,0.4c0.5,0,1.1-0.3,1.7-1c0.6-0.6,1.2-1.6,1.9-2.8h2.1c-1,2.2-2.1,3.9-3.3,5c-1.2,1.1-2.5,1.7-3.8,1.7
			c-1,0-1.8-0.3-2.4-0.9c-0.6-0.6-0.9-1.5-0.9-2.5c0-0.4,0-0.8,0.1-1.2c0.1-0.4,0.2-0.9,0.3-1.5l3-12.1c0,0,0-0.1,0-0.1
			c0,0,0-0.1,0-0.2c0-0.3-0.1-0.5-0.4-0.6c-0.2-0.1-0.6-0.2-1.1-0.2h-5.6l-3.6,15c-0.9,3.9-2,6.6-3.3,8.4c-1.3,1.7-2.9,2.6-4.8,2.6
			c-1.2,0-2.2-0.3-3-0.9c-0.8-0.6-1.2-1.4-1.2-2.3c0-0.7,0.2-1.2,0.6-1.6c0.4-0.4,0.9-0.6,1.4-0.6c0.7,0,1.2,0.2,1.6,0.5
			c0.4,0.3,0.6,0.7,0.6,1.3c0,0.4-0.2,0.8-0.5,1.2c-0.1,0.1-0.1,0.2-0.1,0.2c0,0,0.1,0.1,0.3,0.2c0.2,0.1,0.4,0.1,0.7,0.1
			c0.9,0,1.6-0.7,2.3-2s1.4-3.8,2.2-7.3l3.2-14.5h-3.9l0.6-2h3.9c0.6-2.6,1.7-4.5,3.3-5.9c1.6-1.4,3.7-2.1,6.1-2.1
			c1.9,0,3.3,0.3,4.3,0.9c1,0.6,1.5,1.4,1.5,2.6c0,0.7-0.2,1.2-0.6,1.6c-0.4,0.4-1,0.6-1.6,0.6c-0.6,0-1.2-0.1-1.5-0.4
			c-0.4-0.3-0.6-0.7-0.6-1.1c0-0.4,0.1-0.7,0.4-1.1c0.2-0.3,0.4-0.5,0.4-0.5c0-0.2-0.2-0.4-0.5-0.6c-0.4-0.2-0.8-0.3-1.3-0.3
			c-1.5,0-2.8,0.5-3.8,1.6C574.7,94.1,573.9,95.7,573.4,97.9z"/>
		<path class="st0" d="M606.9,112.7c-1,2.1-2.3,3.8-3.9,4.9c-1.6,1.1-3.3,1.7-5.3,1.7c-2.4,0-4.3-0.8-5.8-2.5
			c-1.5-1.6-2.2-3.8-2.2-6.4c0-2,0.3-3.9,1-5.6c0.7-1.7,1.7-3.2,3-4.5c1-1,2.1-1.8,3.4-2.3s2.6-0.8,4-0.8c2,0,3.6,0.5,4.8,1.6
			c1.3,1,1.9,2.4,1.9,4c0,1-0.3,1.8-0.8,2.4c-0.5,0.6-1.2,0.9-2.1,0.9c-0.7,0-1.3-0.2-1.8-0.6c-0.5-0.4-0.7-1-0.7-1.6
			c0-0.3,0.1-0.7,0.3-1c0.2-0.3,0.4-0.6,0.8-0.9c0.2-0.1,0.4-0.3,0.8-0.4c0.4-0.2,0.5-0.3,0.5-0.5c0-0.4-0.3-0.9-1-1.3
			c-0.7-0.4-1.4-0.6-2.3-0.6c-2.3,0-4.2,1.1-5.6,3.4s-2.1,5.2-2.1,8.9c0,1.8,0.4,3.2,1.2,4.2s1.9,1.5,3.4,1.5c1.1,0,2.2-0.4,3.3-1.1
			c1.1-0.8,2.1-1.9,3-3.4H606.9z"/>
		<path class="st0" d="M623.8,115.7c-1.1,1.2-2.2,2.1-3.3,2.7c-1.1,0.6-2.3,0.9-3.4,0.9c-1.8,0-3.2-0.7-4.3-2.2
			c-1.1-1.4-1.7-3.4-1.7-5.7c0-1.8,0.3-3.5,0.9-5.2c0.6-1.7,1.4-3.3,2.5-4.7c1.1-1.4,2.3-2.4,3.6-3.2c1.3-0.7,2.7-1.1,4-1.1
			c1.3,0,2.4,0.3,3.3,1c0.9,0.7,1.6,1.8,2.2,3.2l1-3.9h3.6l-4.3,15.6l0,0.1c-0.2,0.8-0.3,1.3-0.3,1.6c0,0.4,0.1,0.7,0.3,1
			c0.2,0.2,0.4,0.4,0.8,0.4c0.5,0,1.1-0.3,1.7-0.9c0.6-0.6,1.2-1.6,1.9-2.8h2.1c-1,2.2-2.1,3.9-3.3,5c-1.2,1.1-2.5,1.7-3.8,1.7
			c-1,0-1.7-0.3-2.3-0.8C624.4,117.8,624,116.9,623.8,115.7z M622.8,99.8c-1,0-1.9,0.3-2.8,0.9c-0.9,0.6-1.7,1.5-2.5,2.7
			c-0.8,1.2-1.5,2.7-1.9,4.2c-0.5,1.6-0.7,3.1-0.7,4.6c0,1.4,0.3,2.5,1,3.3c0.6,0.8,1.5,1.2,2.6,1.2c0.9,0,1.7-0.3,2.5-0.7
			c0.8-0.5,1.6-1.2,2.3-2.2c0.9-1.2,1.7-2.7,2.3-4.5s0.9-3.4,0.9-4.9c0-1.4-0.3-2.5-1-3.3C624.8,100.3,623.9,99.8,622.8,99.8z"/>
		<path class="st0" d="M659.3,115.7c-1.1,1.2-2.2,2.1-3.3,2.7c-1.1,0.6-2.3,0.9-3.4,0.9c-1.8,0-3.2-0.7-4.3-2.2
			c-1.1-1.4-1.7-3.4-1.7-5.7c0-1.8,0.3-3.5,0.9-5.2c0.6-1.7,1.4-3.3,2.5-4.7c1.1-1.4,2.3-2.4,3.6-3.2c1.3-0.7,2.7-1.1,4-1.1
			c1.3,0,2.4,0.3,3.3,1c0.9,0.7,1.6,1.8,2.2,3.2l1-3.9h3.6l-4.3,15.6l0,0.1c-0.2,0.8-0.3,1.3-0.3,1.6c0,0.4,0.1,0.7,0.3,1
			c0.2,0.2,0.4,0.4,0.8,0.4c0.5,0,1.1-0.3,1.7-0.9c0.6-0.6,1.2-1.6,1.9-2.8h2.1c-1,2.2-2.1,3.9-3.3,5c-1.2,1.1-2.5,1.7-3.8,1.7
			c-1,0-1.7-0.3-2.3-0.8C659.8,117.8,659.5,116.9,659.3,115.7z M658.3,99.8c-1,0-1.9,0.3-2.8,0.9c-0.9,0.6-1.7,1.5-2.5,2.7
			c-0.8,1.2-1.5,2.7-1.9,4.2c-0.5,1.6-0.7,3.1-0.7,4.6c0,1.4,0.3,2.5,1,3.3c0.6,0.8,1.5,1.2,2.6,1.2c0.9,0,1.7-0.3,2.5-0.7
			c0.8-0.5,1.6-1.2,2.3-2.2c0.9-1.2,1.7-2.7,2.3-4.5s0.9-3.4,0.9-4.9c0-1.4-0.3-2.5-1-3.3C660.3,100.3,659.4,99.8,658.3,99.8z"/>
		<path class="st0" d="M681.3,118.6l0.6-2.5h0.3c0.9,0,1.5-0.2,1.9-0.5c0.4-0.3,0.7-0.9,0.9-1.7l4.3-16.7c0.1-0.3,0.1-0.6,0.2-0.9
			s0.1-0.6,0.1-0.9c0-0.6-0.2-1-0.7-1.2c-0.5-0.2-1.2-0.4-2.3-0.4h-0.4l0.6-2.5h10.3c2,0,3.6,0.1,4.6,0.3c1,0.2,2,0.5,2.8,0.9
			c1.8,0.9,3.1,2.3,4.2,4.1c1,1.8,1.5,3.9,1.5,6.1c0,2.6-0.5,5-1.5,7.2c-1,2.3-2.5,4.2-4.4,5.7c-1.2,1-2.6,1.8-4.1,2.2
			c-1.5,0.5-3.4,0.7-5.6,0.7H681.3z M693.7,97.2l-4,15.4c-0.1,0.5-0.2,0.8-0.3,1.1c0,0.3-0.1,0.5-0.1,0.6c0,0.7,0.3,1.2,1,1.5
			c0.7,0.3,1.9,0.4,3.7,0.4c1.5,0,2.8-0.3,4.1-0.8c1.2-0.5,2.3-1.3,3.2-2.3c1.3-1.4,2.3-3.2,3.1-5.3s1.1-4.4,1.1-6.6
			c0-2.4-0.6-4.2-1.9-5.6c-1.2-1.3-3-2-5.2-2c-1.3,0-2.3,0.3-3.2,0.9S694,96.1,693.7,97.2z"/>
		<path class="st0" d="M725.4,112.5c-1,2.2-2.1,3.9-3.3,5c-1.2,1.1-2.4,1.7-3.8,1.7c-1,0-1.8-0.3-2.4-0.9c-0.6-0.6-0.9-1.5-0.9-2.6
			c0-0.7,0.1-1.6,0.4-2.6c0.2-1.1,0.6-2.2,1.1-3.5c0.3-0.8,0.7-1.9,1.2-3.2c0.9-2.5,1.4-4,1.4-4.5c0-0.4-0.1-0.7-0.2-0.9
			s-0.4-0.3-0.7-0.3c-0.6,0-1.1,0.3-1.7,0.8c-0.6,0.6-1.3,1.5-2.1,2.7h-2.1c1.1-2.1,2.2-3.7,3.5-4.9s2.5-1.7,3.7-1.7
			c1,0,1.7,0.3,2.3,0.9c0.5,0.6,0.8,1.5,0.8,2.6c0,0.6-0.1,1.4-0.4,2.5c-0.3,1-0.9,2.8-1.8,5.4c-0.7,1.9-1.2,3.3-1.4,4.1
			c-0.2,0.8-0.4,1.4-0.4,1.8c0,0.4,0.1,0.7,0.3,1c0.2,0.2,0.5,0.3,0.8,0.3c0.5,0,1.1-0.3,1.7-0.9c0.6-0.6,1.2-1.5,1.9-2.8H725.4z
			 M719.1,92.5c0-0.7,0.2-1.3,0.7-1.8s1.1-0.7,1.7-0.7c0.7,0,1.3,0.2,1.8,0.7s0.7,1.1,0.7,1.8c0,0.7-0.2,1.3-0.7,1.8
			s-1.1,0.7-1.8,0.7c-0.7,0-1.3-0.2-1.7-0.7C719.3,93.7,719.1,93.1,719.1,92.5z"/>
		<path class="st0" d="M747.8,106c0,1.7-0.3,3.3-0.8,4.9c-0.5,1.6-1.3,3-2.3,4.2c-1.1,1.3-2.4,2.3-3.8,3.1c-1.5,0.7-3,1.1-4.6,1.1
			c-2.4,0-4.4-0.8-5.8-2.4s-2.2-3.8-2.2-6.4c0-2,0.3-3.9,1-5.6c0.7-1.7,1.7-3.2,3-4.5c1-1,2.2-1.8,3.5-2.3c1.3-0.5,2.6-0.8,4.1-0.8
			c2.4,0,4.3,0.8,5.8,2.4C747.1,101.2,747.8,103.3,747.8,106z M736.7,117.2c1,0,1.9-0.3,2.7-0.9c0.8-0.6,1.6-1.5,2.3-2.7
			c0.7-1.2,1.2-2.5,1.5-4c0.4-1.5,0.5-3,0.5-4.6c0-1.9-0.3-3.3-1-4.3s-1.7-1.4-3.1-1.4c-2,0-3.7,1.1-5.1,3.3c-1.4,2.2-2.1,5-2.1,8.3
			c0,2,0.4,3.5,1.1,4.6C734.3,116.6,735.3,117.2,736.7,117.2z"/>
		<path class="st0" d="M757,119.2c-2,0-3.6-0.5-4.9-1.5c-1.3-1-1.9-2.3-1.9-3.8c0-0.9,0.2-1.6,0.6-2.2c0.4-0.5,1-0.8,1.7-0.8
			c0.6,0,1.1,0.2,1.5,0.5c0.4,0.4,0.6,0.8,0.6,1.4c0,0.6-0.2,1.1-0.7,1.6c-0.5,0.5-0.7,0.8-0.7,0.9c0,0.4,0.4,0.8,1.1,1.2
			c0.7,0.4,1.6,0.6,2.6,0.6c1.3,0,2.3-0.3,3.1-0.9c0.8-0.6,1.2-1.4,1.2-2.4c0-1.1-1-2.5-3.1-4c-0.3-0.2-0.5-0.4-0.6-0.5
			c-1.7-1.3-2.9-2.4-3.5-3.3c-0.6-0.9-0.9-1.9-0.9-2.9c0-1.6,0.6-3,1.9-4.1c1.3-1.1,2.9-1.6,4.8-1.6c1.8,0,3.3,0.5,4.6,1.4
			c1.2,0.9,1.8,2.1,1.8,3.4c0,0.8-0.2,1.5-0.7,2c-0.5,0.5-1.1,0.8-1.8,0.8c-0.6,0-1.1-0.2-1.5-0.5s-0.6-0.8-0.6-1.3
			c0-0.6,0.3-1.1,0.8-1.6c0.5-0.5,0.8-0.8,0.8-1c0-0.3-0.3-0.6-1-0.9c-0.7-0.3-1.4-0.5-2.2-0.5c-1,0-1.9,0.3-2.6,0.8
			c-0.7,0.6-1.1,1.2-1.1,2c0,0.6,0.2,1.1,0.6,1.6c0.4,0.5,1.1,1.2,2.1,1.9l0.4,0.3c3.5,2.7,5.3,5,5.3,7c0,1.8-0.7,3.3-2.2,4.5
			C761.1,118.6,759.2,119.2,757,119.2z"/>
		<path class="st0" d="M776.7,95.6c-0.2,0-0.3,0.1-0.5,0.1s-0.3,0-0.4,0c-0.7,0-1.2-0.2-1.6-0.6c-0.4-0.4-0.6-1-0.6-1.8
			c0-0.8,0.2-1.4,0.7-1.9c0.5-0.5,1.1-0.7,2-0.7c0.9,0,1.5,0.3,2,0.9c0.5,0.6,0.8,1.4,0.8,2.5c0,1.7-0.6,3.2-1.9,4.5
			c-1.3,1.4-3.1,2.5-5.3,3.2v-1.6c1.4-0.7,2.5-1.4,3.2-2.1C775.9,97.4,776.4,96.6,776.7,95.6z M785.2,95.6c-0.2,0-0.3,0.1-0.5,0.1
			c-0.1,0-0.3,0-0.4,0c-0.7,0-1.2-0.2-1.6-0.6c-0.4-0.4-0.6-1-0.6-1.8c0-0.8,0.3-1.4,0.8-1.9c0.5-0.5,1.1-0.7,1.9-0.7
			c0.9,0,1.5,0.3,2.1,0.9c0.5,0.6,0.8,1.4,0.8,2.5c0,1.7-0.6,3.2-1.9,4.5c-1.3,1.4-3,2.5-5.3,3.2v-1.6c1.4-0.7,2.5-1.4,3.2-2.1
			C784.4,97.4,784.9,96.6,785.2,95.6z"/>
	</g>
	<path class="st1" d="M97.2,105.8c6.5,0,11.7-5.4,11.7-12c0-6.6-5.3-12-11.7-12c-6.5,0-11.7,5.4-11.7,12
		C85.4,100.5,90.7,105.8,97.2,105.8"/>
	<path class="st2" d="M24,120.1c23.1-6.6,43.2-3.9,62,9C66.8,109.5,43.2,110,24,120.1"/>
	<path class="st2" d="M148.6,108.6c0,0-4.4-4.8-15.6-5.6c-10.6-0.7-27.7,2.2-41.6,19.8C82.8,110.6,66,107,44.2,108.6
		c20,2.2,37.3,7.1,44.8,20.4l5.8,0.2c8.3-15,26.9-23,40.5-23C142.2,106.2,148.6,108.6,148.6,108.6"/>
	<path class="st3" d="M99.2,73.6c-0.4,0-0.8,0.1-1.1,0.4c-0.3,0.3-0.5,0.7-0.5,1.1l0,0.7c0,0.8,0.6,1.4,1.3,1.5
		c3.8,0.4,7.5,2.1,10.3,5.1c2.8,3,4.2,6.7,4.4,10.4c0,0.8,0.7,1.4,1.4,1.4l0.7,0c0.4,0,0.8-0.2,1.1-0.4c0.3-0.3,0.4-0.7,0.4-1.1
		c-0.2-4.6-2-9.2-5.4-12.8C108.4,76.2,103.8,74.1,99.2,73.6"/>
	<path class="st3" d="M99.4,64.4c-0.4,0-0.8,0.1-1.1,0.4c-0.3,0.3-0.5,0.7-0.5,1.1l0,0.7c0,0.8,0.6,1.5,1.4,1.5
		c6.2,0.5,12.1,3.2,16.7,8c4.5,4.8,6.8,10.9,6.9,17c0,0.8,0.7,1.4,1.4,1.5l0.7,0c0.4,0,0.8-0.1,1.1-0.4c0.3-0.3,0.5-0.7,0.4-1.1
		c-0.2-7-2.8-14-7.9-19.4C113.4,68,106.5,64.9,99.4,64.4"/>
	<path class="st3" d="M99.7,55.1c-0.4,0-0.8,0.1-1.1,0.4c-0.3,0.3-0.5,0.7-0.5,1.1l0,0.7c0,0.8,0.6,1.5,1.4,1.5
		c8.5,0.6,16.8,4.3,23.1,11c6.2,6.6,9.3,15.1,9.4,23.6c0,0.8,0.6,1.4,1.4,1.5l0.7,0c0.4,0,0.8-0.1,1.1-0.4c0.3-0.3,0.5-0.7,0.5-1.1
		c-0.1-9.4-3.5-18.7-10.4-26.1C118.4,59.8,109.2,55.8,99.7,55.1"/>
	<path class="st0" d="M92.2,78.2c-4.4-6-12-16.3-12-16.3c24.3-6.6,20-29.5,4.4-35.5c-3.5-1.4-9-1.9-16.5-1.9H42.5v2.2h2.6
		c2.7,0,4.7,0.9,6,2.6c1,1.2,1.5,4.3,1.5,9.4v51.7c0,4.5-0.4,7.4-1.1,8.7c-1.3,2.2-3.4,3.3-6.4,3.3h-2.6v2.2h30.1v-2.2h-2.8
		c-2.6,0-4.6-0.9-5.9-2.6c-1-1.2-1.5-4.4-1.5-9.4V63.1c0.6,0,1.1,0.1,1.6,0.1c0.5,0,1,0,1.5,0c1.1,0,3.3,0,5.1,0l12.9,21.7h0.1
		C85.7,81.7,88.7,79.3,92.2,78.2 M65.4,59.4c-0.3,0-0.7,0-1.2,0c-0.5,0-1,0-1.7,0V30.1c3.4-0.7,6.1-1.1,8.1-1.1
		c4.5,0,8.2,1.6,10.9,4.7c2.7,3.1,4.1,7.2,4.1,12.2C85.7,55.2,73,59.4,65.4,59.4z"/>
	<path class="st2" d="M42.5,5.6h87.7c15.1,0,27.4,12.3,27.4,27.4v87.7c0,15.1-12.3,27.4-27.4,27.4H42.5c-15.1,0-27.4-12.3-27.4-27.4
		V33C15,17.9,27.4,5.6,42.5,5.6 M42.5,2.6h87.7c16.7,0,30.4,13.7,30.4,30.4v87.7c0,16.7-13.7,30.4-30.4,30.4H42.5
		c-16.7,0-30.4-13.7-30.4-30.4V33C12,16.3,25.7,2.6,42.5,2.6z"/>
</g>
</svg>
